<?xml version="1.0" standalone="no"?>
<!DOCTYPE svg PUBLIC "-//W3C//DTD SVG 20010904//EN"
 "http://www.w3.org/TR/2001/REC-SVG-20010904/DTD/svg10.dtd">
<svg version="1.0" xmlns="http://www.w3.org/2000/svg"
 width="207.000000pt" height="192.000000pt" viewBox="0 0 207.000000 192.000000"
 preserveAspectRatio="xMidYMid meet">

<g transform="translate(0.000000,192.000000) scale(0.100000,-0.100000)"
fill="#000000" stroke="none">
<path d="M893 1360 c-254 -32 -423 -124 -459 -248 -45 -154 80 -500 200 -552
22 -10 79 -27 126 -37 120 -25 449 -25 570 0 127 27 167 50 217 126 77 117
135 330 119 434 -21 128 -154 219 -384 263 -97 19 -295 26 -389 14z m381 -135
c119 -25 183 -52 233 -101 l46 -43 -7 -73 c-9 -89 -47 -208 -90 -279 -27 -46
-39 -56 -81 -71 -150 -49 -510 -49 -659 0 -44 15 -53 23 -83 77 -47 85 -83
205 -86 285 -2 63 0 71 26 98 105 110 440 161 701 107z"/>
<path d="M988 1058 l-3 -63 -62 -3 -63 -3 0 -59 0 -60 65 0 65 0 0 -60 0 -60
60 0 60 0 0 60 0 60 60 0 60 0 0 60 0 60 -60 0 -60 0 0 65 0 65 -60 0 -59 0
-3 -62z"/>
</g>
</svg>
